<?xml version="1.0" encoding="utf-8"?>
<!-- Generator: Adobe Illustrator 22.0.1, SVG Export Plug-In . SVG Version: 6.00 Build 0)  -->
<svg id="logo-svg" width="129" height="36" viewBox="0 0 129 36" fill="none" xmlns="http://www.w3.org/2000/svg"><g clip-path="url(#clip0)"><path fill-rule="evenodd" clip-rule="evenodd" d="M124.146 9.35211H118.073L110.708 17.0704V0H106.21V28.507H110.708V23.1549L113.069 20.6761L118.692 28.507H124.314L116.274 17.4648L124.146 9.35211ZM62.8599 13.4084V22.3099C62.8599 24 63.5909 24.676 65.3901 24.676C66.0086 24.676 66.7957 24.5634 66.9644 24.507V28.2817C66.6833 28.3944 65.7836 28.7324 64.1531 28.7324C60.6109 28.7324 58.4181 26.6479 58.4181 23.0422V13.4084H54.8759V9.35211H55.8318C57.8559 9.35211 58.7555 8.05633 58.7555 6.36619V3.49295H62.8599V9.35211H66.8519V13.4084H62.8599ZM48.4662 17.1268L45.5425 16.5634C44.3618 16.338 43.6309 15.6056 43.6309 14.5352C43.6309 13.3521 44.7554 12.338 46.3859 12.338C48.916 12.338 49.7594 14.0845 49.9281 15.2113L53.8076 14.0845C53.4703 12.169 51.7835 8.73239 46.4421 8.73239C42.4501 8.73239 39.414 11.5493 39.414 14.9296C39.414 17.5775 41.1569 19.7746 44.5867 20.507L47.398 21.1268C48.916 21.4648 49.647 22.2535 49.647 23.2676C49.647 24.4507 48.6911 25.4648 46.7795 25.4648C44.3618 25.4648 43.0686 23.9437 42.8999 22.1972L38.9079 23.3239C39.1328 25.4648 41.2694 29.1268 46.7795 29.1268C51.6711 29.1268 54.0325 25.9155 54.0325 22.9859C53.9763 20.1127 52.1209 17.9155 48.4662 17.1268ZM23.5584 11.9437C24.458 10.2535 26.707 8.9014 29.6308 8.9014C35.3095 8.9014 38.5144 13.2394 38.4581 18.9296C38.4581 24.676 34.9722 29.0141 29.4621 29.0141C26.7633 29.0141 24.6267 27.831 23.6709 26.3662V36H19.1728V9.35211H23.5584V11.9437ZM23.6146 18.8732C23.6146 22.5352 25.8074 24.9014 28.7874 24.9014C31.8235 24.9014 33.9601 22.5915 33.9601 18.8732C33.9601 15.2676 31.8798 12.9014 28.7874 12.9014C25.7512 12.9014 23.6146 15.2676 23.6146 18.8732ZM12.4258 9.29578H16.9801H17.0363V25.0141C17.0363 26.3983 17.1229 27.4789 17.1821 28.2177C17.1903 28.3208 17.1981 28.4173 17.205 28.507H12.8194C12.7069 28.0563 12.6507 27.1549 12.6507 26.3662C11.7511 28.1127 9.50208 29.0704 7.25307 29.0704C2.69882 29.0704 0 25.6338 0 21.4085V9.23944H4.55425V20.507C4.55425 22.8732 5.67876 24.9014 8.4338 24.9014C11.0764 24.9014 12.4258 23.1549 12.4258 20.6197V9.29578ZM84.6191 15.7183C84.6191 11.8873 82.4263 8.56338 76.5227 8.56338C71.7998 8.56338 68.8198 11.493 68.4825 14.8169L72.6431 15.7746C72.8118 13.8592 74.1612 12.2817 76.5789 12.2817C79.109 12.2817 80.1773 13.5775 80.1773 15.2113C80.1773 15.8873 79.84 16.4507 78.7717 16.5634L73.8801 17.2958C70.619 17.7465 68.0889 19.662 68.0889 23.0986C68.0889 26.1408 70.5628 28.9014 74.5548 28.9014C77.6472 28.9014 79.5589 27.3239 80.4585 25.8592C80.4585 27.0549 80.5627 27.798 80.6073 28.116C80.6194 28.2025 80.6271 28.2576 80.6271 28.2817H84.844C84.7878 28.1127 84.6191 26.9296 84.6191 25.1831V15.7183ZM80.1773 20.338C80.1773 24.0563 78.0408 25.2958 75.4544 25.2958C73.6552 25.2958 72.6431 24.1127 72.6431 22.8169C72.6431 21.2394 73.7676 20.4507 75.1733 20.2254L80.1773 19.493V20.338ZM90.7477 18.8732C90.7477 22.7606 93.2216 24.9014 96.0891 24.9014C99.069 24.9014 100.418 22.8169 100.924 21.2958L104.916 22.7606C103.961 25.7465 101.093 29.0141 96.0891 29.0141C90.4666 29.0141 86.1935 24.6197 86.1935 18.8169C86.1935 12.9014 90.4666 8.67605 95.9767 8.67605C101.149 8.67605 103.961 11.8873 104.748 14.9859L100.643 16.507C100.25 14.8169 98.9566 12.9014 96.0329 12.9014C93.2216 12.9014 90.7477 14.9859 90.7477 18.8732ZM19.1728 0L23.6146 6.02817H20.6909L18.0483 3.60563L15.4057 6.02817H12.4258L16.8676 0H19.1728ZM127.126 9.97183C127.126 9.57747 126.844 9.29578 126.395 9.29578H125.664V11.4366H126.057V10.6479H126.226L126.676 11.4366H127.126L126.676 10.5916C126.901 10.5352 127.126 10.3099 127.126 9.97183ZM126.338 10.3099H126.057V9.69014H126.338C126.563 9.69014 126.732 9.80282 126.732 10.0282C126.676 10.1972 126.563 10.3099 126.338 10.3099ZM124.37 10.4225C124.37 9.35211 125.214 8.45071 126.282 8.45071C127.35 8.45071 128.25 9.35211 128.194 10.4225C128.194 11.493 127.35 12.3944 126.282 12.3944C125.214 12.3944 124.37 11.493 124.37 10.4225ZM124.764 10.4225C124.764 11.3239 125.439 12 126.282 12C127.125 12 127.8 11.2676 127.8 10.4225C127.8 9.52113 127.125 8.84507 126.282 8.84507C125.439 8.84507 124.764 9.52113 124.764 10.4225Z" fill="white"></path></g><defs><clipPath id="clip0"><rect width="128.25" height="36" fill="white"></rect></clipPath></defs></svg>
